<svg xmlns="http://www.w3.org/2000/svg" data-version="3.3.35" data-background-color="#ffffff" width="550" height="359.239952619599" viewBox="-0 0 589.27 359.239952619599" x="0" y="-7.119976309799512"><defs><mask id="681d7b00-d19b-11ea-bfa5-efb137179d26"><circle r="41.76030941175375" cx="194.63499999999996" cy="-67.09964410286372" fill="white" opacity="0.28"></circle><circle r="38.76030941175376" cx="194.63499999999996" cy="-67.09964410286372" fill="black" opacity="1" stroke-width="0" stroke="#000000" data-fill-palette-color="black" data-stroke-palette-color="primary" data-palette-color="black"></circle></mask></defs><rect id="background" fill="#ffffff" width="589.27" height="359.239952619599" x="-0"></rect><g transform="matrix(1,0,0,1,100,208.85995261959903)"><g id="tight-bounds"><g><path d="M14.27 49.58L10.85 49.58 0 2.81 2.54 2.81 9.45 33.57 12.46 47.3 12.8 47.3 15.88 33.57 23.11 2.81 26.66 2.81 33.9 33.57 37.05 47.3 37.38 47.3 40.33 33.57 47.23 2.81 49.71 2.81 38.86 49.58 35.44 49.58 28.14 18.83 25.06 4.96 24.65 4.96 21.64 18.83 14.27 49.58ZM64.45 50.38L64.45 50.38Q61.44 50.38 58.99 49.35 56.55 48.31 54.87 46.13 53.2 43.95 52.29 40.6 51.39 37.25 51.39 32.56L51.39 32.56Q51.39 23.25 54.87 18.99 58.35 14.74 64.45 14.74L64.45 14.74Q70.55 14.74 73.77 18.96 76.98 23.18 76.98 31.89L76.98 31.89 76.98 32.7 53.87 32.7 53.87 35.11Q53.87 41.41 56.61 44.89 59.36 48.37 64.45 48.37L64.45 48.37Q68.67 48.37 71.08 46.43 73.5 44.49 74.77 40.67L74.77 40.67 76.51 41.67Q75.11 45.89 72.22 48.14 69.34 50.38 64.45 50.38ZM64.45 16.68L64.45 16.68Q59.36 16.68 56.61 20.2 53.87 23.72 53.87 30.02L53.87 30.02 53.87 30.89 74.5 30.89 74.5 30.02Q74.5 23.72 71.99 20.2 69.48 16.68 64.45 16.68ZM83.08 49.58L83.08 0 85.36 0 85.36 20.77 85.83 20.77Q86.76 17.96 89.21 16.35 91.65 14.74 95.27 14.74L95.27 14.74Q101.37 14.74 104.65 19.09 107.94 23.45 107.94 32.56L107.94 32.56Q107.94 41.67 104.65 46.03 101.37 50.38 95.27 50.38L95.27 50.38Q91.65 50.38 89.21 48.78 86.76 47.17 85.83 44.35L85.83 44.35 85.36 44.35 85.36 49.58 83.08 49.58ZM94.87 48.37L94.87 48.37Q100.03 48.37 102.74 44.89 105.46 41.41 105.46 35.11L105.46 35.11 105.46 30.02Q105.46 23.78 102.74 20.27 100.03 16.75 94.87 16.75L94.87 16.75Q92.86 16.75 91.12 17.35 89.38 17.96 88.1 19.09 86.83 20.23 86.09 21.84 85.36 23.45 85.36 25.53L85.36 25.53 85.36 39.53Q85.36 41.61 86.09 43.25 86.83 44.89 88.1 46.03 89.38 47.17 91.12 47.77 92.86 48.37 94.87 48.37ZM122.21 50.38L122.21 50.38Q118.39 50.38 115.67 48.91 112.96 47.44 110.82 44.15L110.82 44.15 112.56 42.88Q114.5 45.89 116.75 47.13 118.99 48.37 122.21 48.37L122.21 48.37Q126.23 48.37 128.4 46.56 130.58 44.76 130.58 41L130.58 41Q130.58 37.59 128.94 35.88 127.3 34.17 123.55 33.5L123.55 33.5 120.87 33.03Q116.44 32.29 114.13 30.18 111.82 28.07 111.82 23.72L111.82 23.72Q111.82 19.16 114.67 16.95 117.52 14.74 122.01 14.74L122.01 14.74Q125.96 14.74 128.3 16.11 130.65 17.49 132.26 19.63L132.26 19.63 130.65 21.04Q129.31 19.23 127.4 17.99 125.49 16.75 122.07 16.75L122.07 16.75Q118.39 16.75 116.24 18.46 114.1 20.17 114.1 23.58L114.1 23.58Q114.1 27 115.77 28.64 117.45 30.28 121.2 30.95L121.2 30.95 123.88 31.42Q128.44 32.23 130.65 34.34 132.86 36.45 132.86 40.8L132.86 40.8Q132.86 45.56 130.05 47.97 127.23 50.38 122.21 50.38ZM140.16 5.03L140.16 5.03Q139.16 5.03 138.72 4.56 138.29 4.09 138.29 3.35L138.29 3.35 138.29 2.61Q138.29 1.88 138.69 1.41 139.09 0.94 140.1 0.94L140.1 0.94Q141.1 0.94 141.54 1.41 141.97 1.88 141.97 2.61L141.97 2.61 141.97 3.35Q141.97 4.09 141.57 4.56 141.17 5.03 140.16 5.03ZM139.02 49.58L139.02 15.54 141.3 15.54 141.3 49.58 139.02 49.58ZM160.2 49.58L153.96 49.58Q152.56 49.58 151.95 48.98 151.35 48.37 151.35 46.97L151.35 46.97 151.35 17.55 145.79 17.55 145.79 15.54 149.74 15.54Q150.75 15.54 151.08 15.04 151.42 14.54 151.42 13.53L151.42 13.53 151.42 5.9 153.63 5.9 153.63 15.54 160.53 15.54 160.53 17.55 153.63 17.55 153.63 47.57 160.2 47.57 160.2 49.58ZM176.48 50.38L176.48 50.38Q173.46 50.38 171.02 49.35 168.57 48.31 166.9 46.13 165.22 43.95 164.32 40.6 163.41 37.25 163.41 32.56L163.41 32.56Q163.41 23.25 166.9 18.99 170.38 14.74 176.48 14.74L176.48 14.74Q182.57 14.74 185.79 18.96 189.01 23.18 189.01 31.89L189.01 31.89 189.01 32.7 165.89 32.7 165.89 35.11Q165.89 41.41 168.64 44.89 171.38 48.37 176.48 48.37L176.48 48.37Q180.7 48.37 183.11 46.43 185.52 44.49 186.79 40.67L186.79 40.67 188.54 41.67Q187.13 45.89 184.25 48.14 181.37 50.38 176.48 50.38ZM176.48 16.68L176.48 16.68Q171.38 16.68 168.64 20.2 165.89 23.72 165.89 30.02L165.89 30.02 165.89 30.89 186.53 30.89 186.53 30.02Q186.53 23.72 184.01 20.2 181.5 16.68 176.48 16.68ZM220.09 50.38L220.09 50.38Q216.41 50.38 213.43 49.14 210.45 47.9 208.33 45.06 206.22 42.21 205.09 37.59 203.95 32.96 203.95 26.2L203.95 26.2Q203.95 19.43 205.09 14.81 206.22 10.18 208.33 7.34 210.45 4.49 213.43 3.25 216.41 2.01 220.09 2.01L220.09 2.01Q225.52 2.01 228.7 4.46 231.89 6.9 233.63 11.46L233.63 11.46 231.62 12.53Q230.14 8.44 227.43 6.3 224.72 4.15 220.09 4.15L220.09 4.15Q213.73 4.15 210.14 8.74 206.56 13.33 206.56 22.98L206.56 22.98 206.56 29.41Q206.56 39.06 210.14 43.65 213.73 48.24 220.09 48.24L220.09 48.24Q225.05 48.24 227.8 45.96 230.55 43.68 231.89 39.33L231.89 39.33 233.9 40.4Q232.29 45.16 229 47.77 225.72 50.38 220.09 50.38ZM250.04 50.38L250.04 50.38Q247.03 50.38 244.58 49.35 242.14 48.31 240.46 46.13 238.79 43.95 237.88 40.6 236.98 37.25 236.98 32.56L236.98 32.56Q236.98 23.25 240.46 18.99 243.95 14.74 250.04 14.74L250.04 14.74Q256.14 14.74 259.62 18.99 263.11 23.25 263.11 32.56L263.11 32.56Q263.11 37.25 262.2 40.6 261.3 43.95 259.62 46.13 257.95 48.31 255.5 49.35 253.06 50.38 250.04 50.38ZM250.04 48.37L250.04 48.37Q255.13 48.37 257.88 44.89 260.63 41.41 260.63 35.11L260.63 35.11 260.63 30.02Q260.63 23.72 257.88 20.23 255.13 16.75 250.04 16.75L250.04 16.75Q244.95 16.75 242.2 20.23 239.46 23.72 239.46 30.02L239.46 30.02 239.46 35.11Q239.46 41.41 242.2 44.89 244.95 48.37 250.04 48.37ZM289.1 49.58L289.1 44.35 288.63 44.35Q287.7 47.03 285.22 48.71 282.74 50.38 279.05 50.38L279.05 50.38Q274.23 50.38 271.68 47.47 269.14 44.55 269.14 38.86L269.14 38.86 269.14 15.54 271.42 15.54 271.42 38.79Q271.42 43.28 273.49 45.79 275.57 48.31 279.59 48.31L279.59 48.31Q281.47 48.31 283.21 47.7 284.95 47.1 286.26 45.96 287.56 44.82 288.33 43.18 289.1 41.54 289.1 39.46L289.1 39.46 289.1 15.54 291.38 15.54 291.38 49.58 289.1 49.58ZM301.9 49.58L299.62 49.58 299.62 15.54 301.9 15.54 301.9 20.77 302.37 20.77Q303.24 18.02 305.75 16.38 308.27 14.74 311.95 14.74L311.95 14.74Q316.71 14.74 319.29 17.69 321.87 20.64 321.87 26.26L321.87 26.26 321.87 49.58 319.59 49.58 319.59 26.33Q319.59 21.77 317.51 19.26 315.43 16.75 311.41 16.75L311.41 16.75Q309.47 16.75 307.76 17.35 306.05 17.96 304.75 19.13 303.44 20.3 302.67 21.94 301.9 23.58 301.9 25.66L301.9 25.66 301.9 49.58ZM340.22 49.58L333.99 49.58Q332.59 49.58 331.98 48.98 331.38 48.37 331.38 46.97L331.38 46.97 331.38 17.55 325.82 17.55 325.82 15.54 329.77 15.54Q330.78 15.54 331.11 15.04 331.45 14.54 331.45 13.53L331.45 13.53 331.45 5.9 333.66 5.9 333.66 15.54 340.56 15.54 340.56 17.55 333.66 17.55 333.66 47.57 340.22 47.57 340.22 49.58ZM356.51 50.38L356.51 50.38Q353.49 50.38 351.04 49.35 348.6 48.31 346.92 46.13 345.25 43.95 344.34 40.6 343.44 37.25 343.44 32.56L343.44 32.56Q343.44 23.25 346.92 18.99 350.41 14.74 356.51 14.74L356.51 14.74Q362.6 14.74 365.82 18.96 369.03 23.18 369.03 31.89L369.03 31.89 369.03 32.7 345.92 32.7 345.92 35.11Q345.92 41.41 348.67 44.89 351.41 48.37 356.51 48.37L356.51 48.37Q360.73 48.37 363.14 46.43 365.55 44.49 366.82 40.67L366.82 40.67 368.56 41.67Q367.16 45.89 364.28 48.14 361.4 50.38 356.51 50.38ZM356.51 16.68L356.51 16.68Q351.41 16.68 348.67 20.2 345.92 23.72 345.92 30.02L345.92 30.02 345.92 30.89 366.55 30.89 366.55 30.02Q366.55 23.72 364.04 20.2 361.53 16.68 356.51 16.68ZM377.41 49.58L375.13 49.58 375.13 15.54 377.41 15.54 377.41 21.57 377.88 21.57Q378.82 18.76 381.09 17.15 383.37 15.54 386.86 15.54L386.86 15.54 389.27 15.54 389.27 17.69 386.45 17.69Q384.58 17.69 382.94 18.32 381.29 18.96 380.06 20.1 378.82 21.24 378.11 22.81 377.41 24.39 377.41 26.33L377.41 26.33 377.41 49.58Z" opacity="1" transform="matrix(1,0,0,1,0,0)" fill="#000000" data-fill-palette-color="primary" data-stroke-palette-color="transparent" data-palette-color="#000000"></path></g><g></g><g><path d="M214.645-86.999H197.649V-87.999A1 1 0 0 0 196.649-88.999H192.651A1 1 0 0 0 191.651-87.999V-86.999H174.656A1 1 0 1 0 174.656-85H214.645A1 1 0 1 0 214.645-87M205.646-60.007A1 1 0 0 1 204.646-59.007H202.646A1 1 0 0 1 201.647-60.007V-76.003A1 1 0 0 1 202.647-77.003H204.647A1 1 0 0 1 205.647-76.003ZM199.648-60.007A1 1 0 0 1 198.648-59.007H196.648A1 1 0 0 1 195.648-60.007V-68.005A1 1 0 0 1 196.648-69.005H198.648A1 1 0 0 1 199.648-68.005ZM193.649-60.007A1 1 0 0 1 192.649-59.007H190.65A1 1 0 0 1 189.65-60.007V-72.004A1 1 0 0 1 190.65-73.004H192.65A1 1 0 0 1 193.65-72.004ZM187.651-60.007A1 1 0 0 1 186.651-59.007H184.651A1 1 0 0 1 183.652-60.007V-64.006A1 1 0 0 1 184.652-65.006H186.652A1 1 0 0 1 187.652-64.006ZM212.646-83.001H176.656A1 1 0 0 0 175.656-82.001V-54.009A1 1 0 0 0 176.656-53.009H193.651V-52.423L187.946-46.719A1 1 0 1 0 189.36-45.305L194.651-50.597 199.943-45.305A0.997 0.997 0 0 0 201.356-45.305 0.999 0.999 0 0 0 201.356-46.719L195.651-52.424V-53.01H212.646A1 1 0 0 0 213.646-54.01V-82.001A1 1 0 0 0 212.646-83.001Z" opacity="1" data-fill-palette-color="accent" data-stroke-palette-color="transparent" fill="#0191da" data-palette-color="#0191da"></path></g><g></g><g><circle r="41.76030941175376" cx="194.63499999999996" cy="-67.09964410286372" fill="#000000" stroke-width="0" stroke="#000000" data-fill-palette-color="primary" data-stroke-palette-color="primary" mask="url(#681d7b00-d19b-11ea-bfa5-efb137179d26)" data-palette-color="#000000"></circle></g></g><g id="character" width="251.4679668337193" height="251.4679668337193" style="display: none;" transform="matrix(1,0,0,1,100,208.85995261959903)"><path d="M97.27 188.6L88.09 188.6 58.9 62.87 65.75 62.87 84.3 145.55 92.41 182.48 93.31 182.48 101.6 145.55 121.05 62.87 130.6 62.87 150.05 145.55 158.52 182.48 159.42 182.48 167.35 145.55 185.9 62.87 192.56 62.87 163.38 188.6 154.2 188.6 134.56 105.92 126.27 68.63 125.19 68.63 117.09 105.92 97.27 188.6Z" fill="#000000"></path></g></g></svg>